<svg width="114" height="114" fill="none" xmlns="http://www.w3.org/2000/svg"><g clip-path="url(#clip0_258_488)"><path fill-rule="evenodd" clip-rule="evenodd" d="M82.552 44.545a23.538 23.538 0 016.757-.984c12.99 0 23.542 10.546 23.542 23.541 0 12.995-10.552 23.542-23.542 23.542-12.995 0-23.542-10.547-23.542-23.542 0-8.974 5.029-16.78 12.425-20.754l-2.02-4.892-21.159 28h-8.197c-1.182 11.889-11.23 21.188-23.424 21.188-12.995 0-23.541-10.547-23.541-23.542 0-12.995 10.546-23.541 23.541-23.541 2.99 0 5.857.56 8.49 1.582l5.56-10.976-2.175-4.731h-4.812A2.352 2.352 0 0128.1 27.08c0-1.125.89-2.354 2.354-2.354h11.728c1.126 0 2.354.89 2.354 2.354 0 1.465-1.224 2.355-2.354 2.355H40.45l2.213 4.708h30.53l-1.983-4.708h-7.797a2.352 2.352 0 01-2.354-2.355c0-1.464 1.22-2.354 2.354-2.354h10.97l8.17 19.818zM29.74 49.366a18.765 18.765 0 00-6.347-1.097c-10.396 0-18.833 8.437-18.833 18.833 0 10.396 8.437 18.834 18.833 18.834 9.596 0 17.525-7.195 18.688-16.48H27.47a4.717 4.717 0 01-4.078 2.355 4.71 4.71 0 01-4.708-4.709 4.71 4.71 0 014.45-4.699l6.605-13.037zM80 50.726c-5.687 3.245-9.524 9.366-9.524 16.376 0 10.396 8.437 18.834 18.833 18.834 10.396 0 18.833-8.438 18.833-18.834 0-10.396-8.437-18.833-18.833-18.833-1.714 0-3.371.23-4.948.66l5.565 13.507a4.707 4.707 0 01-.617 9.375 4.71 4.71 0 01-3.734-7.576L80 50.727zm-46.061.778l-6.606 13.023.137.221h14.61a18.845 18.845 0 00-8.141-13.244zm2.138-4.228c5.904 3.785 10.01 10.132 10.74 17.472h4.693L39.956 39.624l-3.88 7.651zm36.174-8.424H44.759l10.414 22.586 17.078-22.586z" fill="#FEED01"/></g><defs><clipPath id="clip0_258_488"><path fill="#fff" transform="translate(.004 .997)" d="M0 0h113v113H0z"/></clipPath></defs></svg>