<svg width="19" height="27" viewBox="0 0 19 27" fill="none" xmlns="http://www.w3.org/2000/svg">
<g clip-path="url(#clip0_268_588)">
<path d="M12.3922 0.44898C11.4864 0.163265 10.4983 0 9.48967 0C6.58717 0 3.97287 1.30612 2.22314 3.36735L6.71068 7.10204L12.3922 0.44898Z" fill="#2B2A28"/>
<path d="M2.22319 3.36737C0.843987 5.00002 0 7.12247 0 9.40819C0 11.1837 0.349946 12.6123 0.946912 13.898L6.71073 7.10206L2.22319 3.36737Z" fill="#2B2A28"/>
<path d="M9.51002 5.81632C11.5274 5.81632 13.1536 7.42857 13.1536 9.42857C13.1536 10.3061 12.8242 11.1224 12.289 11.7551C12.289 11.7551 15.1503 8.36734 17.9499 5.08163C16.7971 2.87755 14.8004 1.20408 12.3919 0.448975L6.71045 7.10203C7.38976 6.32652 8.37784 5.81632 9.51002 5.81632Z" fill="#2B2A28"/>
<path d="M9.51016 13.0204C7.49282 13.0204 5.8666 11.4082 5.8666 9.40817C5.8666 8.53062 6.17538 7.7143 6.71059 7.10205L0.946777 13.898C1.93486 16.0612 3.58166 17.8163 5.26964 20L12.2891 11.7347C11.6098 12.5306 10.6217 13.0204 9.51016 13.0204Z" fill="#2B2A28"/>
<path d="M12.1655 22.2857C15.3356 17.3673 19.0203 15.1428 19.0203 9.42854C19.0203 7.85712 18.6292 6.38773 17.9499 5.0816L5.26953 20C5.80474 20.6939 6.36054 21.4898 6.89575 22.3061C8.83074 25.2653 8.29553 27.0204 9.53064 27.0204C10.7657 27.0204 10.2305 25.2449 12.1655 22.2857Z" fill="#2B2A28"/>
</g>
<defs>
<clipPath id="clip0_268_588">
<rect width="19" height="27" fill="white"/>
</clipPath>
</defs>
</svg>
