<svg width="19" height="27" fill="none" xmlns="http://www.w3.org/2000/svg"><g clip-path="url(#clip0_268_588)" fill="#2B2A28"><path d="M12.392.449A9.7 9.7 0 009.49 0a9.518 9.518 0 00-7.267 3.367l4.488 3.735L12.392.449zM2.223 3.367A9.37 9.37 0 000 9.408c0 1.776.35 3.204.947 4.49L6.71 7.102 2.223 3.367z"/><path d="M9.51 5.816c2.017 0 3.644 1.613 3.644 3.613 0 .877-.33 1.693-.865 2.326 0 0 2.861-3.388 5.66-6.673A9.462 9.462 0 0012.393.449L6.71 7.102a3.706 3.706 0 012.8-1.286z"/><path d="M9.51 13.02c-2.017 0-3.643-1.612-3.643-3.612 0-.877.308-1.694.844-2.306L.947 13.898C1.935 16.061 3.582 17.816 5.27 20l7.02-8.265a3.627 3.627 0 01-2.78 1.285zM12.165 22.286c3.17-4.919 6.855-7.143 6.855-12.857 0-1.572-.39-3.041-1.07-4.347L5.27 20c.535.694 1.09 1.49 1.626 2.306 1.935 2.96 1.4 4.714 2.635 4.714 1.235 0 .7-1.775 2.634-4.734z"/></g><defs><clipPath id="clip0_268_588"><path fill="#fff" d="M0 0h19v27H0z"/></clipPath></defs></svg>