<svg width="43" height="37" fill="none" xmlns="http://www.w3.org/2000/svg"><path d="M31.133.334a11.273 11.273 0 00-10.725 7.752H4.515a3.92 3.92 0 00-3.927 3.93v20.711a3.906 3.906 0 003.927 3.914H36.26c2.177 0 3.968-1.737 3.968-3.914V18.35c1.344-1.88 2.215-4.204 2.215-6.72 0-6.231-5.08-11.296-11.31-11.296zm-.42 1.177a10.123 10.123 0 0110.543 10.114 10.135 10.135 0 01-10.123 10.123 10.123 10.123 0 01-.42-20.237zm3.578 3.132a3.428 3.428 0 00-2.804 5.403l-6.595 6.594a.588.588 0 00.831.831l.513-.512 1.484 1.472a.587.587 0 00.828 0l2.119-2.102a.59.59 0 00.001-.833l-1.484-1.485 3.134-3.134a3.43 3.43 0 101.973-6.234zm-.094 1.177a2.255 2.255 0 11-1.485 3.864 2.255 2.255 0 011.485-3.864zM4.515 9.262h15.572c-.169.779-.254 1.574-.253 2.371a11.31 11.31 0 007.014 10.45l-4.073 3.195a3.594 3.594 0 01-4.435-.003L1.764 12.515v-.498a2.744 2.744 0 012.751-2.755zm-2.751 4.737L12.687 22.4 1.764 32.677V13.999zm26.588.843l1.068 1.067-1.286 1.276-1.066-1.058 1.284-1.285zm10.7 4.854v12.96l-10.299-9.987c.788.17 1.59.255 2.396.255 3.071 0 5.804-1.232 7.904-3.228zM27.479 23.08l11.245 10.899a2.76 2.76 0 01-2.463 1.487H4.515a2.759 2.759 0 01-2.46-1.483L13.61 23.118l4 3.081a4.78 4.78 0 005.889.002l3.978-3.122z" fill="#FEED01"/></svg>