<svg width="25" height="24" viewBox="0 0 25 24" fill="none" xmlns="http://www.w3.org/2000/svg">
    <path d="M22.6809 -0.000122106L1.33086 -0.000122072C0.598859 -0.000122071 0.00585938 0.592878 0.00585938 1.32488L0.00585941 22.6759C0.00585941 23.4069 0.598859 23.9999 1.33086 23.9999L12.8259 23.9999L12.8259 14.7059L9.69786 14.7059L9.69786 11.0839L12.8259 11.0839L12.8259 8.41288C12.8259 5.31288 14.7189 3.62488 17.4849 3.62488C18.8099 3.62488 19.9479 3.72388 20.2799 3.76788L20.2799 7.00788L18.3619 7.00888C16.8579 7.00888 16.5669 7.72388 16.5669 8.77188L16.5669 11.0849L20.1539 11.0849L19.6869 14.7069L16.5669 14.7069L16.5669 23.9999L22.6829 23.9999C23.4129 23.9999 24.0059 23.4069 24.0059 22.6749L24.0059 1.32488C24.0059 0.592878 23.4129 -0.000122107 22.6809 -0.000122106Z"
          fill="#5072AB"/>
</svg>
