<svg width="52" height="52" fill="none" xmlns="http://www.w3.org/2000/svg"><path d="M52 26.585c0-1.712-.155-3.337-.42-4.919H26.564v9.772h14.322c-.642 3.207-2.523 5.915-5.313 7.757v6.5h8.545C49.122 41.166 52 34.493 52 26.585z" fill="#FEED01"/><path d="M26.564 52c7.173 0 13.172-2.34 17.555-6.305l-8.545-6.5c-2.39 1.56-5.423 2.513-9.01 2.513-6.929 0-12.795-4.571-14.898-10.746h-8.81v6.695C7.215 46.15 16.181 52 26.563 52z" fill="#FEED01"/><path d="M11.666 30.962A14.798 14.798 0 0110.825 26c0-1.733.31-3.401.841-4.962v-6.694h-8.81C1.04 17.854 0 21.797 0 26s1.04 8.147 2.856 11.657l8.81-6.695z" fill="#FEED01"/><path d="M26.564 10.292c3.919 0 7.416 1.321 10.183 3.9l7.571-7.41C39.736 2.578 33.737 0 26.564 0 16.182 0 7.216 5.85 2.855 14.343l8.811 6.695c2.103-6.175 7.97-10.746 14.898-10.746z" fill="#FEED01"/></svg>