<svg width="53" height="52" fill="none" xmlns="http://www.w3.org/2000/svg"><path d="M26.14 4.686c6.942 0 7.765.027 10.508.152 7.046.32 10.337 3.664 10.658 10.658.126 2.74.15 3.564.15 10.506 0 6.944-.027 7.765-.15 10.506-.323 6.988-3.605 10.337-10.658 10.658-2.743.126-3.562.152-10.508.152-6.942 0-7.766-.026-10.507-.152-7.063-.323-10.337-3.681-10.657-10.66-.126-2.74-.152-3.562-.152-10.506 0-6.942.028-7.763.152-10.506C5.298 8.502 8.58 5.157 15.633 4.836c2.744-.123 3.565-.15 10.507-.15zm0-4.686c-7.062 0-7.945.03-10.719.156C5.98.589.731 5.828.298 15.279.17 18.055.14 18.94.14 26s.03 7.947.156 10.72c.433 9.443 5.672 14.69 15.123 15.124 2.776.126 3.66.156 10.72.156 7.062 0 7.948-.03 10.721-.156 9.434-.433 14.695-5.672 15.121-15.123.128-2.774.159-3.66.159-10.721s-.03-7.945-.156-10.719C51.559 5.848 46.314.591 36.862.159 34.087.03 33.201 0 26.14 0zm0 12.649c-7.373 0-13.351 5.978-13.351 13.351 0 7.373 5.978 13.353 13.35 13.353 7.374 0 13.352-5.978 13.352-13.353 0-7.373-5.978-13.351-13.351-13.351zm0 22.018a8.667 8.667 0 110-17.333 8.667 8.667 0 010 17.333zM40.02 9.002a3.121 3.121 0 00-3.123 3.12 3.119 3.119 0 106.24 0 3.119 3.119 0 00-3.118-3.12z" fill="#FEED01"/></svg>