<svg width="1518" height="849" fill="none" xmlns="http://www.w3.org/2000/svg"><g clip-path="url(#clip0_271_798)" stroke="#FCEC09" stroke-miterlimit="10"><path d="M217.929.028c-1.899 120.401-3.534 242.88 29.658 358.63 33.191 115.75 106.968 225.939 217.601 273.58 63.983 27.53 135.117 32.494 204.602 37.082l434.72 28.656c45.04 2.968 91.74 5.707 133.91-10.428 47.93-18.339 83.62-58.542 126.42-86.851 42.8-28.308 104.18-42.824 142.76-9.003"/><path d="M213.018 3.17c1.446 58.605 3.269 118.607 8.11 179.395 4.75 59.724 11.824 119.574 27.536 177.449 31.202 114.665 103.428 222.274 211.043 272.134 32.349 14.981 67.315 24.457 103.114 29.733 35.605 5.249 71.871 6.765 107.692 8.6 77.296 3.956 154.605 8.752 231.936 13.945 67.468 4.526 134.731 9.657 201.991 14.871 24.62 1.912 49.72 3.768 74.31 2.558 20.23-1.001 40.12-4.074 59.13-10.914 26.33-9.476 49.09-25.452 71.42-42.609 18.29-14.057 36.26-28.934 55.57-41.594 42.84-28.113 103.43-43.484 141.11-12.172"/><path d="M208.114 6.333c3.84 56.492 8.347 115.25 14.454 176.163 5.954 59.842 12.165 120.56 27.182 178.887 29.213 113.56 99.866 218.827 204.49 270.688 32.635 16.184 68.678 26.96 105.723 32.264 36.864 5.27 74.319 5.937 111.287 7.307 77.206 2.857 154.411 7.306 231.672 12.583 67.378 4.609 134.468 10.428 201.478 16.4 24.53 2.189 49.52 4.338 74.02 3.476 20.17-.696 39.97-3.393 58.96-9.803 26.29-8.808 49.18-24.102 71.69-40.731 18.43-13.626 36.53-28.218 55.86-40.801 42.91-27.919 102.69-44.131 139.48-15.336"/><path d="M203.204 9.49c6.26 54.385 13.493 111.926 20.803 172.943 7.158 59.961 12.52 121.499 26.828 180.32 27.307 112.427 96.291 215.552 197.903 269.249a331.215 331.215 0 00108.31 34.76c38.089 5.297 76.754 5.123 114.905 6.02 77.045 1.807 154.202 5.853 231.394 11.22 67.328 4.686 134.243 11.165 201.013 17.923 24.45 2.467 49.33 4.915 73.73 4.456 20.05-.383 39.82-2.718 58.78-8.69 26.3-8.259 49.31-22.81 71.96-38.931 18.57-13.209 36.81-27.495 56.17-39.995 42.96-27.731 101.95-44.791 137.83-18.506"/><path d="M198.279 12.652c8.632 52.265 18.606 108.534 27.127 169.712 8.346 60.085 12.923 122.437 26.472 181.758 25.45 111.28 92.716 212.452 191.379 267.838a315.355 315.355 0 00110.905 37.311c39.333 5.318 79.23 2.906 118.507 4.728 76.83 3.559 154.008 4.407 231.13 9.864 67.266 4.756 133.951 11.916 200.481 19.466 24.34 2.781 49.12 5.492 73.42 5.415 19.97-.076 39.64-2.085 58.63-7.584 26.27-7.647 49.38-21.496 72.21-37.068 18.71-12.764 37.08-26.786 56.47-39.195 43.02-27.544 101.2-45.452 136.19-21.676"/><path d="M193.41 15.816c11.004 50.151 23.697 105.176 33.47 166.485 9.564 60.197 13.32 123.362 26.118 183.191 23.551 110.119 89.029 209.518 184.778 266.357 33.595 19.945 72.768 34.468 113.506 39.835 40.564 5.346 81.643 1.828 122.11 3.476 76.698 3.072 153.806 2.954 230.859 8.502 67.21 4.866 133.689 12.666 199.969 20.96 24.26 3.031 48.92 6.069 73.12 6.368 19.89.229 39.53-1.391 58.46-6.472 26.25-7.05 49.51-20.161 72.47-35.219 18.86-12.333 37.37-26.07 56.79-38.403 43.07-27.349 100.45-46.098 134.54-24.839"/><path d="M188.472 18.979c13.431 48.038 28.837 101.811 39.847 163.259 10.768 60.316 13.717 124.28 25.736 184.63 21.749 108.923 85.364 206.696 178.233 264.911 33.943 21.259 74.138 36.964 116.107 42.358 41.803 5.367 84.057.772 125.713 2.156 76.58 2.537 153.605 1.494 230.588 7.132 67.154 4.915 133.444 13.425 199.464 22.483 24.17 3.316 48.69 6.646 72.83 7.32 19.79.543 39.38-.695 58.29-5.36 26.24-6.437 49.61-18.853 72.73-33.369 19-11.895 37.64-25.347 57.1-37.596 43.13-27.161 99.7-46.759 132.89-28.01"/><path d="M183.562 22.135c15.83 45.931 33.949 98.454 46.198 160.034 11.97 60.433 14.133 125.191 25.401 186.069 19.941 107.755 81.601 204.081 171.647 263.479 34.283 22.608 75.501 39.466 118.701 44.882 43.048 5.394 86.464 1.988 129.323.869a2297.901 2297.901 0 01230.316 5.77c67.1 4.991 133.172 14.182 198.922 24.005 24.08 3.594 48.52 7.223 72.54 8.28 19.7.841 39.22 0 58.12-4.255 26.21-5.833 49.71-17.533 72.99-31.527 19.14-11.464 37.91-24.631 57.4-36.797 43.18-26.966 98.96-47.412 131.26-31.186"/><path d="M178.651 25.298c18.237 43.811 39.103 95.089 52.541 156.808 13.174 60.552 14.565 126.088 25.04 187.501 18.189 106.511 77.825 201.565 165.088 262.019 34.624 23.992 76.864 41.969 121.296 47.413 44.285 5.415 88.884 1.23 132.926-.424a2038.377 2038.377 0 01230.051 4.407c67.037 5.075 132.917 14.933 198.457 25.535 23.99 3.872 48.31 7.793 72.23 9.225 19.62 1.154 39.08.653 57.95-3.142 26.2-5.228 49.81-16.212 73.26-29.678 19.27-11.033 38.19-23.922 57.73-36.004 43.23-26.772 98.21-48.066 129.61-34.35"/><path d="M173.74 28.461c20.63 41.712 44.181 91.766 58.892 153.576 14.377 60.676 15.003 126.984 24.692 188.94 16.463 105.259 73.985 199.173 158.515 260.58 34.965 25.395 78.235 44.492 123.897 49.929 45.531 5.443 91.311.486 136.536-1.71a1838.2 1838.2 0 01229.773 3.045c66.988 5.151 132.665 15.69 197.955 27.057 23.9 4.171 48.11 8.342 71.93 10.177 19.54 1.46 38.95 1.328 57.79-2.03 26.18-4.616 49.91-14.898 73.52-27.808 19.41-10.594 38.46-23.198 58.01-35.197 43.29-26.585 97.47-48.72 127.98-37.541"/><path d="M168.83 31.625c23.029 39.584 49.3 88.366 65.242 150.349 15.58 60.788 15.455 127.867 24.344 190.379 14.593 102.983 69.18 196.077 151.942 259.127 35.292 26.842 79.598 46.975 126.499 52.46 46.761 5.464 93.724-.243 140.131-3.003 75.995-4.512 152.804-4.304 229.53 1.689 66.925 5.221 132.402 16.441 197.452 28.572 23.81 4.436 47.9 8.941 71.64 11.124 19.48 1.772 38.78 2.002 57.61-.918 26.17-4.011 50.02-13.577 73.79-25.986 19.55-10.171 38.73-22.483 58.32-34.399 43.34-26.417 96.71-49.359 126.32-40.689"/><path d="M163.919 34.788c25.43 37.464 54.413 85.008 71.586 147.117 16.783 60.913 15.928 128.75 23.982 191.818 13.013 101.546 65.171 194.005 145.369 257.688 35.612 28.308 80.955 49.47 129.094 54.976 47.992 5.492 96.145-.959 143.741-4.289 75.815-5.298 152.603-5.75 229.238.326 66.87 5.305 132.151 17.193 196.951 30.095 23.71 4.714 47.7 9.518 71.33 12.09 19.36 2.085 38.64 2.676 57.44.187 26.15-3.406 50.12-12.256 74.06-24.137 19.68-9.732 39-21.766 58.62-33.605 43.39-26.202 95.98-50.054 124.67-43.853"/><path d="M159.009 37.944c27.822 35.357 59.532 81.65 77.936 143.905 17.986 61.024 16.408 129.619 23.648 193.264 11.518 101.499 62.168 192.611 138.824 256.242 35.89 29.803 82.297 51.952 131.667 57.486 49.244 5.513 98.566-1.669 147.344-5.562 75.683-6.069 152.408-7.209 228.967-1.042 66.814 5.38 131.885 17.95 196.445 31.617 23.65 4.998 47.5 10.094 71.03 13.042 19.28 2.384 38.5 3.351 57.28 1.3 26.13-2.781 50.22-10.936 74.32-22.295 19.82-9.302 39.28-21.05 58.92-32.799 43.45-26.014 95.23-50.687 123.04-47.023"/><path d="M154.098 41.107c30.229 33.244 64.644 78.286 84.286 140.673 19.19 61.142 16.909 130.488 23.266 194.654 9.933 100.289 58.113 190.63 132.258 254.831 36.203 31.353 83.688 54.475 134.289 60.03 50.49 5.561 100.987-2.357 150.934-6.862 75.522-6.813 152.206-8.655 228.695-2.405 66.772 5.457 131.624 18.708 195.944 33.14 23.53 5.276 47.3 10.671 70.73 13.994 19.2 2.691 38.34 4.025 57.11 2.413 26.11-2.19 50.32-9.622 74.58-20.446 19.96-8.871 39.55-20.335 59.23-31.979 43.5-25.813 94.47-51.34 121.38-50.186"/><path d="M149.188 44.27c32.628 31.124 69.763 74.928 90.636 137.44 20.393 61.261 17.389 131.392 22.911 196.129 8.14 97.352 53.086 187.948 125.692 253.349 36.468 32.911 85.052 57.006 136.884 62.568 51.832 5.562 103.406-3.038 154.557-8.155 75.369-7.536 152.004-10.108 228.431-3.768 66.696 5.562 131.361 19.466 195.451 34.67 23.44 5.561 47.09 11.241 70.43 14.946 19.11 2.997 38.2 4.7 56.94 3.518 26.09-1.585 50.43-8.3 74.84-18.596 20.11-8.44 39.84-19.619 59.54-31.208 43.56-25.624 93.73-51.993 119.75-53.356"/><path d="M144.277 47.433c35.028 29.01 74.868 71.564 96.98 134.215 21.596 61.378 17.966 132.212 22.556 197.56 6.865 97.724 49.857 186.785 119.126 251.904 36.711 34.509 86.422 59.474 139.464 65.084 52.959 5.562 105.82-3.712 158.16-9.448 75.217-8.245 151.803-11.554 228.139-5.123 66.64 5.61 131.108 20.209 194.938 36.15 23.35 5.84 46.89 11.818 70.13 15.899 19.03 3.302 38.05 5.374 56.77 4.63 26.08-.98 50.53-6.952 75.12-16.754 20.24-8.009 40.11-18.896 59.82-30.401 43.6-25.437 92.98-52.654 118.1-56.526"/><path d="M139.366 50.59c37.428 26.903 79.988 68.212 103.33 130.988 22.8 61.504 18.523 133.074 22.202 199 5.377 96.409 45.642 184.97 112.56 250.458 36.92 36.15 87.778 61.983 142.086 67.607 54.309 5.624 108.248-4.366 161.763-10.734 75.071-8.933 151.629-13.007 227.889-6.486 66.584 5.687 130.844 20.967 194.434 37.708 23.26 6.117 46.68 12.395 69.83 16.851 18.94 3.615 37.9 6.055 56.6 5.743 26.06-.369 50.63-5.659 75.37-14.905 20.38-7.578 40.35-18.187 60.15-29.609 43.66-25.242 92.24-53.307 116.46-59.696"/><path d="M134.456 53.752c39.827 24.791 85.107 64.848 109.681 127.763 24.003 61.616 19.099 133.93 21.84 200.432 3.93 95.124 41.385 183.212 106.001 249.019 37.1 37.784 89.141 64.479 144.673 70.131 55.533 5.652 110.676-5.005 165.373-12.027 74.917-9.607 151.407-14.453 227.617-7.848 66.522 5.77 130.579 21.717 193.929 39.229 23.17 6.403 46.48 12.973 69.55 17.811 18.84 3.914 37.75 6.723 56.43 6.848 26.04.236 50.73-4.345 75.63-13.056 20.52-7.146 40.66-17.47 60.45-28.809 43.73-25.027 91.5-53.961 114.82-62.866"/><path d="M129.545 56.916c42.227 22.67 90.22 61.483 116.031 124.558 25.207 61.733 19.691 134.777 21.486 201.864 2.504 93.851 37.065 181.487 99.463 247.572 37.218 39.453 90.497 66.962 147.247 72.655 56.749 5.694 113.102-5.638 168.975-13.306 74.779-10.268 151.205-15.913 227.346-9.218 66.474 5.846 130.327 22.476 193.427 40.752 23.08 6.681 46.29 13.55 69.24 18.77 18.78 4.227 37.6 7.397 56.26 7.954 26.02.848 50.84-3.018 75.9-11.207 20.66-6.709 40.93-16.747 60.76-28.002 43.77-24.868 90.74-54.622 113.17-66.044"/><path d="M124.635 60.079c44.626 20.591 95.338 58.132 122.374 121.304 26.431 61.873 20.317 135.64 21.131 203.31 1.113 92.538 32.69 179.798 92.869 246.099 37.358 41.211 91.875 69.506 149.876 75.206 58.002 5.701 115.537-6.256 172.586-14.599 74.632-10.914 151.003-17.38 227.074-10.581 66.411 5.924 130.065 23.234 192.925 42.282 22.95 6.952 46.08 14.12 68.93 19.709 18.68 4.533 37.46 8.078 56.1 9.037 26.01 1.46 50.93-1.696 76.16-9.357 20.8-6.257 41.2-16.031 61.06-27.21 43.82-24.665 90-55.268 111.53-69.199"/><path d="M119.724 63.242c47.026 18.443 100.451 54.76 128.725 118.079 27.613 61.969 20.963 136.487 20.776 204.742-.251 91.251 28.281 178.15 86.296 244.708 37.434 42.901 93.245 71.953 152.484 77.661 59.24 5.707 117.965-6.862 176.182-15.886 74.5-11.554 150.808-18.812 226.81-11.943 66.355 6.006 129.803 23.984 192.413 43.797 22.9 7.237 45.91 14.697 68.64 20.661 18.59 4.867 37.31 8.753 55.93 10.178a215.085 215.085 0 0076.42-7.508c20.94-5.847 41.48-15.294 61.37-26.417 43.88-24.478 89.26-55.929 109.9-72.37"/><path d="M114.814 66.398c49.418 16.358 105.57 51.41 135.075 114.853 28.816 62.088 21.624 137.35 20.414 206.181-1.579 89.965 23.823 176.517 79.737 243.235 37.463 44.694 94.595 74.49 155.107 80.232 60.513 5.743 120.406-7.452 179.792-17.178 74.367-12.173 150.599-20.265 226.532-13.299 66.299 6.076 129.549 24.735 191.919 45.32 22.8 7.522 45.67 15.294 68.34 21.621 18.5 5.144 37.16 9.419 55.75 11.283a214.07 214.07 0 0076.7-5.666c21.07-5.416 41.73-14.599 61.67-25.604 43.93-24.29 88.5-56.582 108.23-75.54"/><path d="M109.903 69.547c51.818 14.23 110.682 48.059 141.426 111.642 30.019 62.206 22.32 138.211 20.059 207.613-2.859 88.679 19.301 174.911 73.171 241.768 37.442 46.487 95.986 76.986 157.674 82.728 61.688 5.742 122.847-8.03 183.394-18.464 74.236-12.736 150.405-21.663 226.282-14.613 66.244 6.152 129.291 25.492 191.411 46.842 22.71 7.8 45.47 15.85 68.04 22.573 18.42 5.457 37.01 10.101 55.59 12.395 25.95 3.274 51.25 2.259 76.95-3.817 21.22-4.984 42.02-13.903 61.98-24.811 43.99-24.095 87.75-57.235 106.59-78.703"/><path d="M104.993 72.724c54.217 12.118 115.794 44.681 147.768 108.395 31.223 62.331 23.044 139.081 19.705 209.059-4.173 87.393 14.746 173.305 66.606 240.343 37.378 48.309 97.334 79.489 160.274 85.28 62.94 5.791 125.303-8.607 187.004-19.751 74.111-13.396 150.203-23.171 225.997-16.031 66.181 6.257 129.023 26.244 190.903 48.365 22.62 8.085 45.27 16.427 67.74 23.525 18.34 5.763 36.87 10.776 55.42 13.508 25.93 3.886 51.35 3.58 77.21-1.975 21.35-4.546 42.3-13.16 62.29-24.005 44.04-23.908 87.01-57.896 104.95-81.873"/><path d="M100.082 75.888c56.617 9.983 120.914 41.322 154.119 105.169 32.426 62.442 23.788 139.942 19.35 210.491-5.418 86.127 10.134 171.713 60.04 238.897 37.26 50.151 98.697 81.991 162.875 87.803 64.178 5.812 127.73-9.156 190.58-21.037 73.992-13.987 150.008-24.617 225.725-17.38 66.126 6.313 128.769 27.002 190.409 49.887 22.53 8.343 45.06 17.005 67.46 24.485 18.26 6.069 36.72 11.443 55.26 14.599 25.91 4.491 51.47 4.901 77.48-.125 21.49-4.115 42.57-12.451 62.59-23.205 44.1-23.72 86.25-58.55 103.31-85.044"/><path d="M95.171 79.044c59.017 7.883 126.061 37.964 160.47 101.95 33.629 62.568 24.559 140.819 18.988 211.923-6.642 84.863 5.488 170.142 53.481 237.458 37.1 52.022 100.061 84.487 165.47 90.327 65.409 5.839 130.185-9.733 194.21-22.33 73.867-14.599 149.8-26.07 225.454-18.77 66.077 6.389 128.506 27.759 189.886 51.444 22.44 8.642 44.86 17.575 67.15 25.431 18.16 6.374 36.56 12.124 55.08 15.725 25.89 5.096 51.55 6.257 77.74 1.724 21.63-3.685 42.84-11.735 62.9-22.413 44.14-23.519 85.55-59.203 101.66-88.213"/><path d="M90.26 82.207c61.417 5.763 131.146 34.614 166.82 98.717 34.833 62.679 25.36 141.674 18.634 213.363-7.881 83.611.786 168.557 46.908 236.012 36.863 53.912 101.431 86.989 168.071 92.85 66.64 5.86 132.641-10.233 197.813-23.637 73.728-15.148 149.605-27.516 225.19-20.112 66.007 6.466 128.244 28.503 189.394 52.932 22.35 8.92 44.66 18.152 66.84 26.383 18.09 6.688 36.42 12.799 54.95 16.838 25.88 5.707 51.66 7.536 78.01 3.566 21.77-3.247 43.12-11.012 63.2-21.607 44.2-23.33 84.77-59.856 100.02-91.383"/><path d="M85.35 85.37c63.817 3.643 136.258 31.242 173.164 95.492 36.036 62.797 26.201 142.591 18.285 214.815-9.042 82.367-3.957 166.965 40.342 234.566 36.579 55.824 102.788 89.499 170.666 95.381 67.878 5.881 135.103-10.755 201.423-24.909 73.644-15.711 149.403-28.969 224.912-21.475 65.958 6.542 127.978 29.261 188.898 54.455 22.26 9.204 44.46 18.729 66.54 27.342 17.99 6.952 36.27 13.466 54.75 17.943 25.86 6.312 51.75 8.857 78.27 5.416 21.91-2.823 43.39-10.296 63.51-20.808 44.25-23.143 84.02-60.482 98.36-94.546"/><path d="M80.44 88.533c66.216 1.53 141.377 27.884 179.513 92.259 37.24 62.923 27.064 143.503 17.924 216.241-10.189 81.129-8.743 165.359 33.776 233.12 36.238 57.749 104.151 91.995 173.261 97.904 69.109 5.909 137.578-11.283 205.032-26.202 73.547-16.274 149.209-30.415 224.662-22.837 65.896 6.618 127.732 30.018 188.392 55.977 22.16 9.482 44.25 19.306 66.25 28.294 17.89 7.3 36.12 14.148 54.57 19.056 25.85 6.952 51.86 10.177 78.53 7.265 22.05-2.392 43.67-9.587 63.81-20.015 44.32-22.942 83.28-61.177 96.73-97.717"/><path d="M75.53 91.69c68.615-.592 146.488 24.526 185.863 89.04 38.436 63.033 27.954 144.413 17.569 217.644-11.33 79.948-13.57 163.747 27.21 231.674 35.842 59.697 105.521 94.498 175.869 100.428 70.347 5.93 140.034-11.763 208.629-27.481 73.442-16.81 148.999-31.847 224.376-24.179 65.84 6.702 127.474 30.769 187.884 57.5 22.07 9.767 44.05 19.882 65.95 29.247 17.81 7.605 35.97 14.821 54.4 20.16 25.83 7.529 51.97 11.499 78.8 9.107 22.19-1.953 43.94-8.863 64.12-19.208 44.37-22.761 82.53-61.824 95.08-100.887"/><path d="M70.619 94.852c71.015-2.69 151.629 21.162 192.214 85.815 39.646 63.152 28.879 145.338 17.207 219.105-12.45 78.717-18.425 162.119 20.651 230.235C336.067 691.656 407.576 727 479.154 732.958c71.579 5.958 142.511-12.249 212.267-28.774 73.352-17.38 148.805-33.328 224.105-25.569 65.784 6.778 127.214 31.527 187.384 59.022 21.99 10.052 43.82 20.459 65.65 30.199 17.73 7.918 35.83 15.496 54.25 21.28 25.81 8.134 52.07 12.812 79.06 10.956 22.33-1.522 44.22-8.148 64.42-18.409 44.42-22.573 81.79-62.484 93.44-104.056"/><path d="M65.708 98.05c73.45-4.866 156.72 17.77 198.557 82.548 40.85 63.263 29.839 146.283 16.86 220.543-13.549 77.529-23.335 160.472 14.085 228.789 34.847 63.624 108.255 99.496 181.058 105.475 72.802 5.979 144.993-12.722 215.848-30.06 73.255-17.929 148.603-34.76 223.834-26.932 65.729 6.855 126.95 32.285 186.88 60.551 21.89 10.324 43.64 21.03 65.38 31.152 17.65 8.217 35.68 16.17 54.07 22.385 25.79 8.739 52.17 14.134 79.29 12.806 22.47-1.092 44.52-7.432 64.74-17.616 44.47-22.372 81.04-63.131 91.81-107.22"/><path d="M60.797 101.179c75.815-6.952 161.833 14.439 204.908 79.356 42.053 63.388 30.827 147.236 16.498 222.011-14.606 76.353-28.267 158.789 7.519 227.328C323.978 695.487 399.34 731.88 473.346 737.88c74.006 5.999 147.456-13.209 219.452-31.353 73.164-18.472 148.401-36.227 223.562-28.288 65.666 6.952 126.69 33.029 186.41 62.067 21.8 10.609 43.44 21.6 65.05 32.104 17.56 8.53 35.53 16.845 53.9 23.498 25.78 9.343 52.27 15.454 79.58 14.648 22.61-.654 44.77-6.716 65.04-16.81 44.52-22.184 80.29-63.791 90.15-110.39"/><path d="M55.887 104.342c78.214-9.038 166.931 11.081 211.258 76.124 43.256 63.506 31.849 148.215 16.144 223.421-15.706 75.207-33.247 157.115.953 225.897 33.602 67.594 110.974 104.502 186.253 110.536 75.279 6.034 149.98-13.647 223.054-32.653 73.074-19.007 148.2-37.673 223.27-29.65 89.591 9.566 170.241 55.991 250.631 96.632 41.99 21.238 86.52 41.58 133.54 41.107 72.69-.73 140.81-58.091 153.85-129.571"/><path d="M54.204 116.918c77.901-9.955 166.583 9.788 211.731 73.809 44.125 62.533 35.264 146.304 21.527 220.662-13.668 73.954-29.797 154.243 4.674 221.809 33.873 66.391 110.244 102.888 184.639 109.319 74.396 6.431 148.318-12.277 220.732-30.589 72.837-18.311 147.629-36.748 222.331-29.511 67.635 6.556 130.262 33.537 191.532 63.041 19.48 9.357 38.77 18.972 58.07 28.259 41.86 20.161 86.18 39.411 132.94 38.507 72.24-1.39 140.03-57.701 154.41-127.735"/><path d="M52.514 129.494c77.588-10.873 166.235 8.495 212.211 71.494 44.994 61.552 38.686 144.378 26.91 217.895-11.636 72.696-26.34 151.399 8.395 217.735 34.145 65.181 109.514 101.331 183.026 108.103 73.512 6.771 146.67-10.915 218.402-28.566 72.587-17.588 147.024-35.788 221.364-29.344 67.28 5.854 129.668 31.318 190.708 59.224 19.39 8.849 38.64 17.95 57.89 26.73 41.73 19.048 85.81 37.255 132.29 35.907 71.78-2.086 139.25-57.347 154.99-125.886"/><path d="M50.824 142.07c77.275-11.818 165.859 7.202 212.684 69.179 45.906 60.572 42.101 142.431 32.308 215.135-9.627 71.403-22.891 148.57 12.102 213.647 34.416 63.958 108.783 99.747 181.419 106.9 72.636 7.154 144.973-9.732 216.085-26.528 72.295-17.074 146.433-34.85 220.398-29.198 66.918 5.151 129.07 29.087 189.88 55.407 19.33 8.342 38.52 16.921 57.73 25.194 41.58 17.956 85.47 35.093 131.65 33.306 71.32-2.739 138.48-56.971 155.57-124.036"/><path d="M49.133 154.646c76.969-12.708 165.498 5.916 213.136 66.864 46.748 59.599 45.503 140.464 37.692 212.375-7.651 70.111-19.441 145.706 15.824 209.56 34.686 62.769 108.053 98.168 179.798 105.669 71.746 7.502 143.324-8.439 213.769-24.498 72.038-16.421 145.849-33.905 219.438-29.032 66.549 4.443 128.46 26.863 189.06 51.584 19.25 7.835 38.38 15.899 57.5 23.636 41.44 16.859 85.12 32.925 131.01 30.707 70.86-3.42 137.72-56.603 156.14-122.201"/><path d="M47.45 167.222c76.656-13.626 165.13 4.623 213.637 64.549 47.617 58.619 48.897 138.469 43.075 209.615-5.634 68.825-15.997 142.856 19.545 205.479 34.958 61.56 107.316 96.577 178.185 104.481 70.869 7.904 141.661-7.133 211.446-22.455 71.787-15.774 145.264-32.966 218.477-28.878 66.188 3.733 127.865 24.638 188.225 47.767 19.19 7.32 38.26 14.87 57.33 22.135 41.3 15.767 84.76 30.762 130.36 28.106 70.4-4.087 136.92-56.227 156.71-120.352"/><path d="M45.76 179.798c76.343-14.543 164.774 3.33 214.116 62.234 48.487 57.625 52.278 136.46 48.459 206.855-3.658 67.434-12.52 140.006 23.266 201.392 35.23 60.349 106.586 94.998 176.571 103.278 70.104 8.342 140.007-5.826 209.116-20.425 71.53-15.114 144.674-32.021 217.511-28.726 65.831 3.031 127.281 22.414 187.411 43.951 19.12 6.82 38.13 13.848 57.13 20.605 41.16 14.669 84.41 28.608 129.72 25.514 69.94-4.762 136.14-55.859 157.28-118.51"/><path d="M44.07 192.374c76.037-15.461 164.413 2.037 214.596 59.919 49.384 56.659 55.644 134.423 53.85 204.096-1.711 66.092-9.084 137.162 26.98 197.31 35.473 59.14 105.855 93.406 174.957 102.061 69.242 8.718 138.351-4.504 206.793-18.387 71.272-14.454 144.089-31.083 216.551-28.566 65.453 2.329 126.663 20.161 186.573 40.134 19.06 6.305 38.01 12.819 56.95 19.076 41.04 13.57 84.06 26.417 129.07 22.941 69.5-5.429 135.37-55.483 157.86-116.66"/><path d="M42.38 204.95c75.723-16.378 164.051.751 215.076 57.604 50.232 55.685 58.996 132.345 59.233 201.336.215 64.722-5.627 134.311 30.701 193.222 35.765 57.938 105.118 91.829 173.344 100.859 68.379 9.093 136.695-3.191 204.49-16.351 71.022-13.793 143.498-30.143 215.585-28.412 65.091 1.619 126.071 17.956 185.711 36.31 18.99 5.804 37.89 11.818 56.76 17.546 40.89 12.514 83.7 24.277 128.44 20.307 69.03-6.104 134.58-55.108 158.43-114.818"/><path d="M40.696 217.527c75.411-17.297 163.683-.543 215.55 55.288 51.102 54.705 62.362 130.294 64.616 198.555 2.087 63.332-2.17 131.461 34.416 189.142 36.043 56.721 104.394 90.236 171.73 99.649 67.523 9.476 135.047-1.87 202.153-14.321 70.772-13.125 142.907-29.198 214.624-28.253 64.725.911 125.465 15.733 184.915 32.494 18.93 5.29 37.76 10.775 56.58 15.989 40.74 11.387 83.35 22.114 127.78 17.714 68.58-6.778 133.81-54.74 159.01-112.976"/><path d="M39 230.137c75.118-18.214 163.321-1.835 216.029 52.967 51.978 53.697 65.666 128.173 70.007 195.788 3.999 61.928 1.279 128.611 38.136 185.054 36.315 55.518 103.637 88.658 170.117 98.44 66.654 9.864 133.398-.543 199.83-12.277 70.521-12.458 142.323-28.26 213.658-28.1 64.363.201 124.863 13.507 184.093 28.67 18.86 4.783 37.63 9.732 56.38 14.487 40.62 10.289 83 19.953 127.15 15.107 68.11-7.446 133.04-54.364 159.57-111.127"/><path d="M37.316 242.651c74.792-19.125 162.959-3.128 216.509 50.652 52.862 52.758 68.922 126.094 75.384 193.055 5.849 60.482 4.736 125.775 41.857 180.981 36.579 54.308 102.941 87.066 168.503 97.23 65.792 10.247 131.75.785 197.535-10.248 70.25-11.818 141.731-27.314 212.691-27.946 63.995-.501 124.265 11.283 183.265 24.86 18.78 4.275 37.51 8.724 56.2 12.951 40.48 9.198 82.65 17.79 126.5 12.514 67.66-8.12 132.26-53.996 160.15-109.285"/><path d="M35.626 255.262c74.479-20.05 162.598-4.422 217.01 48.33 53.696 51.778 72.156 123.981 80.753 190.295 7.651 59.092 8.187 122.925 45.572 176.893 36.864 53.106 102.19 85.509 166.889 96.02 64.929 10.637 130.067 2.086 195.184-8.203 70.021-11.123 141.14-26.376 211.731-27.808 63.645-1.203 123.665 9.038 182.435 21.037 18.73 3.768 37.38 7.702 56.01 11.422 40.34 8.099 82.3 15.628 125.9 9.913 67.19-8.794 131.45-53.62 160.72-107.442"/><path d="M33.943 267.838c74.166-20.967 162.25-5.722 217.455 46.015 54.594 50.798 75.404 121.833 86.164 187.536 9.439 57.652 11.651 120.074 49.294 172.811 37.121 51.89 101.459 83.896 165.268 94.811 64.074 11.019 128.461 3.476 192.861-6.173 69.784-10.428 140.563-25.431 210.75-27.634 63.295-1.912 123.065 6.833 181.615 17.213 18.66 3.26 37.25 6.68 55.82 9.899 40.2 7.001 81.95 13.466 125.2 7.307 66.77-9.462 130.71-53.252 161.3-105.594"/><path d="M32.252 280.414c73.853-21.885 161.854-7.008 217.936 43.7 55.462 49.818 78.596 119.685 91.547 184.776 11.185 56.213 15.094 117.23 53.008 168.724 37.392 50.686 100.736 82.318 163.662 93.608 63.204 11.394 126.812 4.796 190.537-4.172 69.555-9.732 139.972-24.491 209.805-27.481 62.923-2.621 122.473 4.603 180.783 13.397 18.6 2.781 37.12 5.652 55.65 8.342 40.06 5.909 81.59 11.304 124.57 4.713 66.28-10.135 129.93-52.883 161.87-103.75"/><path d="M30.563 292.99c73.546-22.802 161.512-8.294 218.401 41.385 56.339 48.844 81.754 117.537 96.931 182.016 12.902 54.767 18.55 114.38 56.729 164.643 37.663 49.477 99.998 80.726 162.062 92.391 62.341 11.819 125.198 6.146 188.214-2.085 69.291-9.038 139.381-23.546 208.845-27.328 62.555-3.323 121.865 2.384 179.955 9.579 18.53 2.246 37 4.63 55.45 6.834 39.93 4.818 81.23 9.142 123.93 2.086 65.82-10.804 129.15-52.508 162.44-101.902"/><path d="M28.872 305.566c73.241-23.72 161.151-9.587 218.895 39.07 57.209 47.864 84.857 115.402 102.322 179.256 14.572 53.321 21.993 111.53 60.443 160.59 37.935 48.267 99.268 79.148 160.434 91.189 61.479 12.166 123.522 7.494 185.892-.07 69.046-8.342 138.796-22.6 207.877-27.168 62.185-4.025 121.265.153 179.135 5.763 18.46 1.738 36.86 3.608 55.26 5.305 39.78 3.719 80.88 6.952 123.28-.487 65.38-11.485 128.38-52.14 163.02-100.066"/><path d="M27.175 318.142c72.921-24.638 160.782-10.88 219.368 36.755 58.078 46.884 87.945 113.24 107.705 176.496 16.206 51.883 25.45 108.68 64.164 156.475 38.206 47.057 98.531 77.556 158.814 89.972 60.624 12.555 121.88 8.85 183.575 1.974 68.804-7.647 138.205-21.662 206.911-27.015 61.828-4.734 120.668-2.086 178.308 1.939 18.4 1.231 36.74 2.587 55.08 3.775 39.64 2.628 80.53 4.818 122.63-3.086 64.91-12.152 127.6-51.764 163.59-98.217"/><path d="M25.498 330.718c72.622-25.555 160.421-12.173 219.849 34.44 58.947 45.883 90.977 111.106 113.088 173.736 17.813 50.451 28.907 105.837 67.886 152.387 38.47 45.883 97.8 75.978 157.193 88.77 59.761 12.937 120.239 10.205 181.252 4.004 68.56-6.952 137.614-20.717 205.951-26.855 61.463-5.444 120.063-4.297 177.473-1.878 18.34.696 36.62 1.558 54.89 2.239 39.51 1.536 80.18 2.656 122-5.687 64.45-12.819 126.82-51.388 164.15-96.368"/><path d="M23.809 343.294c72.336-26.473 160.058-13.459 220.327 32.125 59.817 44.931 93.969 108.979 118.473 170.97 19.385 49.039 32.357 102.993 71.641 148.305 38.742 44.646 97.07 74.386 155.586 87.595 58.892 13.32 118.598 11.568 178.93 6.041 68.316-6.256 137.022-19.778 204.984-26.702 61.1-6.153 119.47-6.528 176.67-5.701 18.28.216 36.49.536 54.7.695 39.38.431 79.83.487 121.35-8.286 63.99-13.494 126.04-51.021 164.74-94.547"/><path d="M22.118 355.87c71.996-27.39 159.697-14.752 220.808 29.81 60.693 43.951 96.924 106.88 123.863 168.238 20.922 47.634 35.806 100.108 75.313 144.225 39.021 43.435 96.34 72.807 153.98 86.35 58.03 13.702 116.956 12.937 176.606 8.078 68.08-5.562 136.438-18.833 204.018-26.55 60.734-6.847 118.864-8.745 175.824-9.51 18.21-.299 36.37-.493 54.51-.82 39.24-.695 79.48-1.676 120.71-10.887 63.54-14.168 125.27-50.645 165.31-92.683"/><path d="M20.435 368.481c71.676-28.308 159.329-16.045 221.274 27.495 61.597 42.935 99.852 104.766 129.253 165.415 22.431 46.251 39.264 97.327 79.035 140.137 39.291 42.233 95.61 71.223 152.359 85.148 57.174 14.084 115.315 14.314 174.283 10.115 67.843-4.832 135.854-17.894 203.099-26.418 60.362-7.556 118.242-10.97 174.992-13.333 18.15-.807 36.24-1.516 54.33-2.35 39.1-1.752 79.12-3.831 120.06-13.48 63.08-14.842 124.51-50.276 165.88-90.841"/><path d="M18.745 380.995c71.37-29.199 158.967-17.311 221.754 25.2 62.439 42.004 102.711 102.757 134.637 162.676 23.913 44.882 42.713 94.449 82.77 136.057 39.555 41.016 94.872 69.637 150.745 83.931 56.339 14.474 113.673 15.69 171.96 12.152 67.6-4.102 135.27-16.949 202.098-26.237 60.011-8.266 117.671-13.209 174.161-17.15 18.09-1.314 36.12-2.545 54.14-3.88 38.95-2.85 78.77-5.999 119.43-16.086 62.6-15.51 123.71-49.902 166.45-88.985"/><path d="M17.055 393.599c71.057-30.144 158.612-18.625 222.261 22.851 63.295 41.016 105.542 100.747 140.02 159.936 25.374 43.547 46.171 91.599 86.478 131.969 39.827 39.814 94.142 68.053 149.132 82.728 55.448 14.857 112.031 17.074 169.636 14.189 67.364-3.378 134.679-15.989 201.131-26.083 59.647-8.975 117.077-15.427 173.347-20.975 18.01-1.821 35.98-3.566 53.95-5.408 38.83-3.942 78.42-8.162 118.78-18.68 62.16-16.184 122.94-49.533 167.02-87.157"/><path d="M15.35 406.182c70.752-31.069 158.251-19.925 222.714 20.536 64.192 40.043 108.366 98.773 145.425 157.176 26.806 42.233 49.62 88.749 90.191 127.916 40.098 38.604 93.405 66.468 147.518 81.519 54.58 15.238 110.39 18.457 167.314 16.219 67.12-2.635 134.094-15.065 200.171-25.931 59.277-9.67 116.467-17.651 172.497-24.784 17.95-2.336 35.86-4.588 53.76-6.952 38.69-5.033 78.07-10.323 118.14-21.28 61.7-16.851 122.16-49.157 167.63-85.307"/><path d="M13.682 418.758c70.438-31.979 157.888-21.218 223.186 18.221 65.055 39.07 111.107 96.84 150.795 154.416 28.225 40.947 53.07 85.906 93.898 123.801 40.342 37.401 92.675 64.882 145.898 80.309 53.724 15.621 108.755 19.855 164.997 18.263 66.877-1.898 133.503-14.127 199.204-25.778 58.92-10.38 115.87-19.876 171.69-28.608 17.88-2.836 35.73-5.61 53.56-8.467 38.54-6.139 77.71-12.514 117.49-23.887 61.21-17.526 121.38-48.782 168.17-83.423"/><path d="M13.682 418.758c70.438-31.979 157.888-21.218 223.186 18.221 65.055 39.07 111.107 96.84 150.795 154.416 28.225 40.947 53.07 85.906 93.898 123.801 40.342 37.401 92.675 64.882 145.898 80.309 53.724 15.621 108.755 19.855 164.997 18.263 66.877-1.898 133.503-14.127 199.204-25.778 58.92-10.38 115.87-19.876 171.69-28.608 17.88-2.836 35.73-5.61 53.56-8.467 38.54-6.139 77.71-12.514 117.49-23.887 61.21-17.526 121.38-48.782 168.17-83.423"/><path d="M11.991 431.334c70.132-32.897 157.52-22.532 223.667 15.906 65.924 38.09 113.847 94.957 156.177 151.657 29.645 39.695 56.527 83.055 97.627 119.719 40.641 36.185 91.951 63.298 144.291 79.099 52.862 15.99 107.114 21.253 162.674 20.293 66.64-1.147 132.912-13.209 198.231-25.618 58.562-11.123 115.272-22.1 170.862-32.424 17.82-3.351 35.6-6.639 53.39-10.004 38.41-7.23 77.36-14.647 116.85-26.479 60.79-18.201 120.61-48.414 168.74-81.616"/><path d="M10.3 443.91c69.82-33.814 157.194-23.797 224.147 13.591 66.773 37.109 116.567 93.156 161.561 148.89 31.05 38.479 59.984 80.211 101.355 115.639 40.912 34.982 91.214 61.712 142.678 77.861 51.999 16.393 105.465 21.906 160.351 22.33 66.396.521 132.327-12.242 197.277-25.458 58.191-11.818 114.671-24.332 170.031-36.247 17.75-3.852 35.49-7.696 53.2-11.534 38.26-8.342 77.02-16.81 116.21-29.08 60.33-18.867 119.83-48.038 169.31-79.773"/><path d="M8.61 456.486c69.507-34.76 156.798-25.09 224.662 11.276 67.663 36.15 119.265 91.335 166.931 146.13 32.44 37.29 63.427 77.368 105.027 111.558 41.184 33.773 90.484 60.127 141.064 76.68 51.129 16.775 103.831 23.407 158.028 24.332 66.139 1.168 131.736-11.304 196.308-25.312 57.83-12.514 114.07-26.55 169.21-40.057 17.69-4.366 35.36-8.72 53.01-13.063 38.14-9.42 76.66-18.972 115.57-31.68 59.87-19.542 119.05-47.67 169.88-77.932"/><path d="M6.928 469.062c69.193-35.65 156.428-26.383 225.099 8.961 68.539 35.156 121.957 89.597 172.335 143.37 33.846 36.15 66.884 74.518 108.784 107.47a477.567 477.567 0 00139.45 75.505c50.267 17.158 102.175 25.472 155.697 26.418 65.91 1.147 131.153-10.359 195.357-25.152 57.46-13.209 113.47-28.781 168.37-43.881 17.62-4.876 35.24-9.742 52.86-14.599 38-10.511 76.3-21.134 114.92-34.28 59.41-20.216 118.24-47.273 170.46-76.082"/><path d="M5.237 481.638c68.86-36.567 156.067-27.676 225.58 6.646 69.408 34.176 124.655 87.908 177.718 140.61 35.272 35.003 70.341 71.668 112.477 103.39 41.733 31.353 89.03 56.957 137.829 74.26 49.384 17.547 100.534 26.891 153.382 28.441 65.666 1.919 130.568-9.42 194.387-25.027 57.1-13.904 112.88-31.006 167.55-47.704 17.56-5.377 35.11-10.748 52.64-16.115 37.87-11.61 75.96-23.303 114.28-36.887 58.96-20.856 117.5-46.919 171.04-74.233"/><path d="M3.526 494.214c68.574-37.485 155.712-28.962 226.053 4.331 70.34 33.293 127.354 86.267 183.13 137.85 36.669 33.905 73.79 68.825 116.218 99.302 41.997 30.151 88.293 55.372 136.223 73.058a492.5 492.5 0 00151.058 30.471c65.417 2.711 129.977-8.475 193.422-24.84 56.74-14.599 112.28-33.23 166.72-51.521 17.5-5.89 34.98-11.774 52.46-17.651 37.72-12.701 75.6-25.465 113.63-39.48 58.5-21.551 116.72-46.578 171.61-72.397"/><path d="M1.857 506.825c68.26-38.403 155.35-30.255 226.532 2.016 71.182 32.271 130.018 84.675 188.493 135.09 38.081 32.834 77.24 65.974 119.933 95.242 42.268 28.941 87.555 53.794 134.609 71.848 47.686 18.312 97.23 29.824 148.735 32.515 65.159 3.594 129.372-7.536 192.461-24.687 56.34-15.294 111.67-35.455 165.9-55.344 17.42-6.396 34.84-12.789 52.26-19.181 37.56-13.799 75.25-27.62 112.99-42.08 58.04-22.246 115.94-46.175 172.18-70.548"/><path d="M.174 519.338c67.948-39.32 154.981-31.547 227.005-.298 72.024 31.249 132.717 83.152 193.883 132.386 118.34 95.193 251.482 186.27 403.062 196.316 122.896 8.147 242.126-38.174 356.566-83.688l337.18-134.124"/></g><defs><clipPath id="clip0_271_798"><path fill="#fff" d="M0 0h1518v849H0z"/></clipPath></defs></svg>