<svg width="101" height="76" viewBox="0 0 101 76" fill="none" xmlns="http://www.w3.org/2000/svg">
<path d="M50.6872 18.3515C45.8956 19.1473 43.5956 23.489 45.5581 28.0515C47.6331 32.864 53.5622 35.9473 58.4497 34.7306C62.7789 33.6598 64.7789 29.514 62.9039 25.1681C60.9414 20.6056 55.4706 17.5556 50.6872 18.3515ZM56.8706 30.8431L57.3039 31.7973L56.3914 31.9848L55.9872 31.0723C55.0456 31.2431 53.9789 31.2181 52.9914 30.9598L52.7206 29.3473C53.5331 29.4723 54.5456 29.589 55.3164 29.4306L55.8372 29.2598C56.7581 28.8056 56.4706 27.6473 55.1039 27.3723C54.0831 27.1473 51.3831 27.314 50.3747 25.0723C49.8081 23.8056 50.2289 22.4848 51.8581 21.8806L51.4081 20.8848L52.3122 20.6973L52.7456 21.6515C53.4081 21.5431 54.1831 21.5015 55.0914 21.5806L55.4539 23.1765C54.7456 23.089 53.9831 23.0056 53.3206 23.1431L53.0706 23.2098C51.7831 23.5515 52.1956 24.7723 53.3372 25.0681C55.2247 25.5056 57.4789 25.6473 58.3706 27.6181C59.0914 29.2223 58.2539 30.3181 56.8706 30.8431ZM99.8372 35.2473L84.1456 0.997314C58.4039 17.6806 29.9497 -0.327685 9.34974 19.5556L25.0372 53.8056C47.1122 35.089 77.1997 52.814 99.8372 35.2473ZM88.1581 27.5306C86.5956 29.7015 85.4372 32.1848 84.7456 34.7848C69.7747 39.3431 51.8664 33.9473 34.6706 39.9556C31.8914 38.4806 28.4081 37.5556 25.5497 37.639L20.8206 27.2765C22.6206 25.089 24.0372 21.7556 24.6456 18.5515C38.8081 13.4431 56.5289 19.1973 75.4706 12.714C77.6414 14.1556 80.1789 15.2015 82.6789 15.7181L88.1581 27.5306ZM100.004 51.039C71.4331 67.4598 48.3414 45.1056 18.7539 75.9973L0.00390625 34.4556L5.84557 28.3598L21.7081 63.3848L21.6997 63.414C52.7206 40.1015 68.3456 58.514 97.1539 44.4015C98.3789 47.1015 99.5081 49.9515 100.004 51.039Z" fill="#FEED01"/>
</svg>
