<svg width="101" height="76" fill="none" xmlns="http://www.w3.org/2000/svg"><path d="M50.687 18.352c-4.791.795-7.091 5.137-5.129 9.7 2.075 4.812 8.004 7.895 12.892 6.679 4.329-1.071 6.329-5.217 4.454-9.563-1.963-4.562-7.433-7.612-12.217-6.816zm6.184 12.491l.433.954-.913.188-.404-.913a7.093 7.093 0 01-2.996-.112l-.27-1.613c.812.125 1.825.242 2.595.084l.521-.171c.921-.454.634-1.613-.733-1.888-1.02-.225-3.72-.058-4.73-2.3-.566-1.266-.145-2.587 1.484-3.191l-.45-.996.904-.188.434.954a9.404 9.404 0 012.345-.07l.363 1.596c-.708-.088-1.47-.171-2.133-.034l-.25.067c-1.288.341-.875 1.562.266 1.858 1.888.438 4.142.58 5.034 2.55.72 1.604-.117 2.7-1.5 3.225zm42.966 4.404L84.146.997C58.404 17.681 29.95-.328 9.35 19.556l15.687 34.25c22.075-18.717 52.163-.992 74.8-18.559zm-11.679-7.716a22.251 22.251 0 00-3.412 7.254c-14.971 4.558-32.88-.838-50.075 5.17-2.78-1.474-6.263-2.4-9.121-2.316l-4.73-10.363c1.8-2.187 3.217-5.52 3.826-8.724 14.162-5.109 31.883.645 50.825-5.838a20.917 20.917 0 007.208 3.004l5.48 11.813zm11.846 23.508c-28.57 16.42-51.663-5.933-81.25 24.958L.004 34.456l5.842-6.096 15.862 35.025-.008.029c31.02-23.313 46.646-4.9 75.454-19.013 1.225 2.7 2.354 5.55 2.85 6.638z" fill="#FEED01"/></svg>