<svg width="39" height="38" viewBox="0 0 39 38" fill="none" xmlns="http://www.w3.org/2000/svg">
<path d="M8.58863 0.12475C7.92683 0.071 7.19113 0.262485 6.51254 0.739516C5.91457 1.15608 4.62457 2.18069 3.41855 3.33967C2.81722 3.91748 2.24277 4.51881 1.79933 5.11006C1.35254 5.70131 0.962848 6.24217 0.986364 7.02826C1.00988 7.73373 1.08043 9.81991 2.58207 13.018C4.08371 16.2128 6.99629 20.5968 12.677 26.2808C18.3611 31.9649 22.745 34.8775 25.9398 36.3791C29.1346 37.8808 31.2241 37.9513 31.9296 37.9748C32.7123 37.9983 33.2532 37.6087 33.8444 37.1619C34.4357 36.7151 35.037 36.144 35.6148 35.5426C36.7704 34.3366 37.795 33.0466 38.2116 32.4487C39.1623 31.0948 39.0044 29.4958 37.9462 28.7533C37.2811 28.2864 31.1636 24.2148 30.2432 23.6505C29.3093 23.0794 28.2343 23.338 27.2735 23.8453C26.5176 24.2451 24.4718 25.4175 23.8872 25.7534C23.4471 25.4746 21.7775 24.3626 18.1864 20.7715C14.5918 17.1803 13.4832 15.5107 13.2044 15.0706C13.5403 14.4861 14.7094 12.4503 15.1125 11.681C15.6164 10.7236 15.8986 9.6385 15.2973 8.69787C15.0453 8.29811 13.8998 6.55459 12.7442 4.80436C11.5852 3.05413 10.4867 1.39459 10.2011 0.998187V0.994828C9.82824 0.480844 9.24707 0.1785 8.58863 0.12475ZM8.43074 1.8817C8.6659 1.91194 8.80699 2.006 8.80699 2.006C8.94472 2.19748 10.1507 4.00483 11.3064 5.7517C12.462 7.50194 13.6411 9.29584 13.8461 9.6217C13.8796 9.67209 13.9267 10.2432 13.5907 10.8781V10.8815C13.2111 11.6037 11.4407 14.6977 11.4407 14.6977L11.1955 15.1311L11.4475 15.5611C11.4475 15.5611 12.7677 17.7883 16.9669 21.9876C21.1695 26.1868 23.3968 27.5104 23.3968 27.5104L23.8268 27.7623L24.2601 27.5171C24.2601 27.5171 27.3474 25.7501 28.0764 25.3671C28.7113 25.0345 29.2824 25.0782 29.3496 25.1185C29.9442 25.4847 36.5521 29.8754 36.9586 30.1609C36.972 30.171 37.3314 30.7152 36.8074 31.461H36.804C36.4882 31.9145 35.4536 33.228 34.3752 34.3501C33.8343 34.9111 33.28 35.4351 32.8097 35.7879C32.3394 36.1406 31.9195 36.2515 31.9867 36.2548C31.2543 36.2313 29.6385 36.2145 26.6721 34.8204C23.7058 33.4296 19.473 30.6447 13.8931 25.0614C8.31652 19.4848 5.5316 15.252 4.13746 12.2823C2.74668 9.316 2.72988 7.70014 2.70636 6.97116C2.70972 7.03834 2.82058 6.61506 3.17332 6.14475C3.52605 5.67444 4.04675 5.11678 4.60777 4.57592C5.73316 3.49756 7.04332 2.46288 7.49683 2.14709V2.15045C7.86972 1.88842 8.19558 1.85483 8.43074 1.8817Z" fill="#FEED01"/>
</svg>
