<svg width="39" height="38" fill="none" xmlns="http://www.w3.org/2000/svg"><path d="M8.589.125C7.927.07 7.19.262 6.513.74c-.598.416-1.888 1.44-3.094 2.6-.602.577-1.176 1.179-1.62 1.77-.446.591-.836 1.132-.813 1.918.024.706.094 2.792 1.596 5.99 1.502 3.195 4.414 7.579 10.095 13.263 5.684 5.684 10.068 8.596 13.263 10.098 3.195 1.502 5.284 1.572 5.99 1.596.782.023 1.323-.366 1.914-.813.592-.447 1.193-1.018 1.77-1.62 1.156-1.205 2.181-2.495 2.598-3.093.95-1.354.792-2.953-.266-3.696-.665-.467-6.782-4.538-7.703-5.102-.934-.572-2.009-.313-2.97.194-.755.4-2.801 1.573-3.386 1.908-.44-.278-2.11-1.39-5.7-4.982-3.595-3.59-4.704-5.26-4.983-5.7.336-.585 1.505-2.62 1.909-3.39.503-.957.786-2.042.184-2.983-.252-.4-1.397-2.143-2.553-3.894-1.159-1.75-2.257-3.41-2.543-3.806V.995C9.828.48 9.247.178 8.59.125zM8.43 1.882c.235.03.376.124.376.124.138.191 1.344 1.999 2.5 3.746a497.626 497.626 0 012.54 3.87c.033.05.08.621-.256 1.256v.004c-.38.722-2.15 3.816-2.15 3.816l-.246.433.252.43s1.32 2.227 5.52 6.427c4.203 4.199 6.43 5.522 6.43 5.522l.43.252.433-.245s3.087-1.767 3.816-2.15c.635-.332 1.206-.289 1.274-.248.594.366 7.202 4.756 7.609 5.042.013.01.372.554-.152 1.3h-.003c-.316.454-1.35 1.767-2.429 2.89-.54.56-1.095 1.084-1.565 1.437s-.89.464-.823.467c-.733-.024-2.348-.04-5.315-1.435-2.966-1.39-7.199-4.175-12.779-9.759-5.576-5.576-8.361-9.809-9.756-12.779-1.39-2.966-1.407-4.582-1.43-5.31.003.066.114-.357.466-.827.353-.47.874-1.028 1.435-1.57 1.125-1.077 2.435-2.112 2.889-2.428v.003c.373-.262.699-.295.934-.268z" fill="#FEED01"/></svg>