<svg width="89" height="88" fill="none" xmlns="http://www.w3.org/2000/svg"><path d="M65.407.997c-12.567 0-22.79 10.184-22.79 22.704 0 2.868.631 5.58 1.603 8.1l-40.653 40.5c-3.598 3.585-3.598 9.424 0 13.008 3.598 3.584 9.458 3.584 13.056 0l40.654-40.5c2.53.968 5.252 1.596 8.13 1.596 12.567 0 22.79-10.184 22.79-22.704 0-2.49-.393-4.863-1.128-7.095L86.06 13.65l-2.136 2.188L70.63 29.022l-7.537-3.015-3.027-7.509L73.301 5.254l2.195-2.128L72.53 2.12A22.842 22.842 0 0065.407.997zm0 3.784c.913 0 1.736.289 2.612.414l-11.573 11.47-.89.887 4.273 10.643.296.768.772.296 10.682 4.257.89-.887 11.514-11.53c.126.873.416 1.693.416 2.602 0 10.473-8.48 18.92-18.992 18.92-2.796 0-5.438-.628-7.834-1.715l-1.187-.532-42.433 42.274a5.446 5.446 0 01-7.716 0 5.397 5.397 0 010-7.686l42.434-42.274-.534-1.182c-1.09-2.387-1.721-5.019-1.721-7.805 0-10.472 8.48-18.92 18.991-18.92z" fill="#FEED01"/></svg>