<svg width="114" height="114" viewBox="0 0 114 114" fill="none" xmlns="http://www.w3.org/2000/svg">
<g clip-path="url(#clip0_258_488)">
<path fill-rule="evenodd" clip-rule="evenodd" d="M82.5525 44.5447C84.69 43.9043 86.9642 43.5606 89.3089 43.5606C102.299 43.5606 112.851 54.1073 112.851 67.1023C112.851 80.0973 102.299 90.644 89.3089 90.644C76.3139 90.644 65.7673 80.0973 65.7673 67.1023C65.7673 58.1282 70.7958 50.3218 78.1925 46.348L76.1727 41.456L55.0134 69.4565H46.8162C45.6344 81.345 35.5868 90.644 23.3923 90.644C10.3973 90.644 -0.149414 80.0973 -0.149414 67.1023C-0.149414 54.1073 10.3973 43.5606 23.3923 43.5606C26.382 43.5606 29.2494 44.1209 31.8814 45.1426L37.4419 34.1675L35.2667 29.4356H30.4548C29.1505 29.4356 28.1006 28.381 28.1006 27.0815C28.1006 25.9562 28.9905 24.7273 30.4548 24.7273H42.1832C43.3085 24.7273 44.5374 25.6172 44.5374 27.0815C44.5374 28.5458 43.3132 29.4356 42.1832 29.4356H40.4505L42.6635 34.144H73.1923L71.2101 29.4356H63.4131C62.1089 29.4356 61.0589 28.381 61.0589 27.0815C61.0589 25.6172 62.2784 24.7273 63.4131 24.7273H74.3835L82.5525 44.5447ZM29.7391 49.366C27.7569 48.655 25.6193 48.269 23.3923 48.269C12.9963 48.269 4.55892 56.7063 4.55892 67.1023C4.55892 77.4983 12.9963 85.9356 23.3923 85.9356C32.9878 85.9356 40.9167 78.7413 42.0796 69.4565H27.4697C26.6504 70.8643 25.1296 71.8106 23.3923 71.8106C20.7933 71.8106 18.6839 69.7013 18.6839 67.1023C18.6839 64.5928 20.6567 62.5352 23.1333 62.4034L29.7391 49.366ZM80.0005 50.7267C74.3129 53.9708 70.4756 60.0916 70.4756 67.1023C70.4756 77.4983 78.9129 85.9356 89.3089 85.9356C99.7049 85.9356 108.142 77.4983 108.142 67.1023C108.142 56.7063 99.7049 48.269 89.3089 48.269C87.5951 48.269 85.9378 48.4997 84.3605 48.9281L89.9257 62.4363C92.2375 62.7377 94.0173 64.7152 94.0173 67.1023C94.0173 69.7013 91.9032 71.8106 89.3089 71.8106C86.7099 71.8106 84.6006 69.7013 84.6006 67.1023C84.6006 66.0241 84.9631 65.0306 85.5752 64.2349L80.0005 50.7267ZM33.9389 51.5036L27.3331 64.5268L27.4697 64.7481H42.0796C41.3875 59.2441 38.3224 54.4698 33.9389 51.5036ZM36.0765 47.2755C41.9808 51.061 46.0864 57.4078 46.8162 64.7481H51.5104L39.9562 39.6245L36.0765 47.2755ZM72.2506 38.8523H44.7587L55.1735 61.4382L72.2506 38.8523Z" fill="#FEED01"/>
</g>
<defs>
<clipPath id="clip0_258_488">
<rect width="113" height="113" fill="white" transform="translate(0.00390625 0.997314)"/>
</clipPath>
</defs>
</svg>
