<svg width="43" height="37" viewBox="0 0 43 37" fill="none" xmlns="http://www.w3.org/2000/svg">
<path d="M31.133 0.334241C28.7563 0.33067 26.4393 1.07841 24.513 2.47062C22.5868 3.86282 21.1498 5.82825 20.4076 8.08606H4.51516C3.99887 8.08519 3.4875 8.1863 3.0104 8.38358C2.53329 8.58086 2.09985 8.87043 1.73495 9.23566C1.37005 9.6009 1.08088 10.0346 0.884035 10.5119C0.687193 10.9892 0.586557 11.5006 0.587904 12.0169V32.7271C0.586903 33.2425 0.687902 33.753 0.885079 34.2291C1.08226 34.7053 1.37171 35.1377 1.73677 35.5015C2.10183 35.8653 2.53527 36.1533 3.01212 36.3488C3.48896 36.5443 3.99979 36.6435 4.51516 36.6408H36.2601C38.4366 36.6408 40.2285 34.9035 40.2285 32.7271V18.3499C41.5723 16.4695 42.4426 14.1463 42.4426 11.6292C42.4426 5.39852 37.3633 0.334241 31.133 0.334241ZM30.7122 1.51068C32.0759 1.45394 33.4369 1.67354 34.7135 2.15627C35.9902 2.63899 37.156 3.37489 38.1409 4.3197C39.1259 5.26451 39.9096 6.39874 40.445 7.65419C40.9804 8.90963 41.2564 10.2604 41.2564 11.6252C41.2533 14.3092 40.1857 16.8823 38.2879 18.7801C36.39 20.6779 33.8169 21.7454 31.133 21.7485C28.4849 21.7478 25.9425 20.7097 24.051 18.8566C22.1594 17.0035 21.0692 14.483 21.0141 11.8356C20.9591 9.18811 21.9436 6.62447 23.7565 4.69437C25.5695 2.76426 28.0665 1.62134 30.7122 1.51068ZM34.2909 4.64271C33.6627 4.64222 33.0464 4.8144 32.5094 5.14044C31.9723 5.46648 31.5353 5.93384 31.2459 6.49146C30.9565 7.04907 30.8259 7.6755 30.8684 8.3023C30.9109 8.9291 31.1249 9.53215 31.4869 10.0456L24.892 16.6398C24.7837 16.7505 24.7235 16.8994 24.7243 17.0542C24.7251 17.209 24.787 17.3573 24.8964 17.4667C25.0059 17.5762 25.1541 17.6381 25.309 17.639C25.4638 17.6398 25.6127 17.5796 25.7233 17.4713L26.2358 16.959L27.7203 18.4312C27.8304 18.5405 27.9792 18.6017 28.1343 18.6017C28.2894 18.6017 28.4382 18.5405 28.5483 18.4312L30.6668 16.3287C30.7217 16.2742 30.7653 16.2093 30.7952 16.1379C30.825 16.0665 30.8404 15.9899 30.8406 15.9125C30.8407 15.8351 30.8256 15.7585 30.796 15.687C30.7665 15.6154 30.7231 15.5504 30.6684 15.4957L29.1838 14.0112L32.3178 10.8772C32.7586 11.1873 33.2663 11.3892 33.7998 11.4664C34.3332 11.5435 34.8773 11.4939 35.388 11.3215C35.8987 11.1491 36.3615 10.8587 36.739 10.4739C37.1165 10.0892 37.3979 9.62088 37.5606 9.10701C37.7232 8.59313 37.7624 8.04816 37.6751 7.51629C37.5877 6.98443 37.3762 6.48064 37.0577 6.0458C36.7392 5.61096 36.3227 5.2573 35.842 5.01353C35.3613 4.76975 34.8299 4.6427 34.2909 4.64271ZM34.1971 5.81996C34.5008 5.80732 34.804 5.85622 35.0883 5.96374C35.3726 6.07125 35.6323 6.23516 35.8517 6.4456C36.071 6.65604 36.2456 6.90867 36.3648 7.1883C36.4841 7.46793 36.5455 7.76879 36.5455 8.07278C36.5449 8.67054 36.3071 9.24363 35.8844 9.66632C35.4618 10.089 34.8887 10.3267 34.2909 10.3274C33.7006 10.328 33.1337 10.0972 32.7117 9.68438C32.2898 9.2716 32.0466 8.70981 32.0343 8.11968C32.022 7.52954 32.2417 6.95812 32.646 6.52813C33.0504 6.09815 33.6073 5.84389 34.1971 5.81996ZM4.51516 9.26185H20.087C19.9181 10.041 19.8332 10.836 19.8339 11.6333C19.8364 13.874 20.5044 16.0635 21.7532 17.9241C23.0019 19.7846 24.7752 21.2323 26.8479 22.0836L22.7747 25.2781C22.1417 25.7736 21.3608 26.0426 20.5569 26.042C19.753 26.0414 18.9725 25.7712 18.3403 25.2746L1.76369 12.5148V12.0169C1.76216 11.655 1.83226 11.2963 1.96995 10.9616C2.10764 10.6269 2.31019 10.3228 2.56595 10.0667C2.8217 9.81057 3.1256 9.60762 3.46014 9.46949C3.79467 9.33136 4.15323 9.26079 4.51516 9.26185ZM1.76369 13.9986L12.6866 22.4003L1.76369 32.6768V13.9986ZM28.3524 14.8422L29.4198 15.9092L28.1341 17.1854L27.0676 16.1272L28.3524 14.8422ZM39.0527 19.6962V32.6551L28.7535 22.669C29.5406 22.8388 30.3436 22.9244 31.1489 22.9242C34.2203 22.9242 36.9531 21.6915 39.0527 19.6962ZM27.478 23.0791L38.7234 33.9779C38.4893 34.4284 38.1355 34.8056 37.7009 35.0679C37.2663 35.3303 36.7678 35.4677 36.2601 35.465H4.51516C4.00835 35.4677 3.51058 35.3308 3.07648 35.0692C2.64239 34.8076 2.28874 34.4315 2.05435 33.9821L13.6106 23.118L17.6107 26.1991C18.4511 26.8568 19.4875 27.2143 20.5548 27.2147C21.622 27.2151 22.6586 26.8582 23.4996 26.2011L27.478 23.0791Z" fill="#FEED01"/>
</svg>
