<svg width="53" height="52" viewBox="0 0 53 52" fill="none" xmlns="http://www.w3.org/2000/svg">
<path d="M49.2693 0H3.01097C1.42497 0 0.140137 1.28483 0.140137 2.87083V49.1313C0.140137 50.7152 1.42497 52 3.01097 52H27.9168V31.863H21.1395V24.0153H27.9168V18.2282C27.9168 11.5115 32.0183 7.85417 38.0113 7.85417C40.8821 7.85417 43.3478 8.06867 44.0671 8.164V15.184L39.9115 15.1862C36.6528 15.1862 36.0223 16.7353 36.0223 19.006V24.0175H43.7941L42.7823 31.8652H36.0223V52H49.2736C50.8553 52 52.1401 50.7152 52.1401 49.1292V2.87083C52.1401 1.28483 50.8553 0 49.2693 0Z" fill="#FEED01"/>
</svg>
