<svg width="31" height="31" viewBox="0 0 31 31" fill="none" xmlns="http://www.w3.org/2000/svg">
<path d="M29.2885 -4.58447e-08L1.71146 -2.67891e-09C0.765958 -1.19894e-09 1.19894e-09 0.765958 2.67891e-09 1.71146L4.58468e-08 29.2898C4.73247e-08 30.234 0.765958 31 1.71146 31L16.5592 31L16.5592 18.9953L12.5188 18.9953L12.5188 14.3168L16.5592 14.3168L16.5592 10.8668C16.5592 6.86263 19.0043 4.68229 22.577 4.68229C24.2885 4.68229 25.7584 4.81017 26.1873 4.867L26.1873 9.052L23.7098 9.05329C21.7672 9.05329 21.3913 9.97683 21.3913 11.3305L21.3913 14.3181L26.0245 14.3181L25.4213 18.9965L21.3913 18.9965L21.3913 31L29.2911 31C30.234 31 31 30.234 31 29.2885L31 1.71146C31 0.765958 30.234 -4.73247e-08 29.2885 -4.58447e-08Z" fill="#5072AB"/>
</svg>
