<svg width="52" height="52" viewBox="0 0 52 52" fill="none" xmlns="http://www.w3.org/2000/svg">
<path d="M52 26.5848C52 24.8732 51.845 23.2482 51.5794 21.6665H26.5645V31.4381H40.8871C40.2452 34.6448 38.3635 37.3531 35.5742 39.1948V45.6948H44.1192C49.1221 41.1664 52 34.4931 52 26.5848Z" fill="#FEED01"/>
<path d="M26.5643 51.9999C33.7367 51.9999 39.7358 49.6599 44.119 45.695L35.5741 39.195C33.1833 40.755 30.1505 41.7083 26.5643 41.7083C19.6354 41.7083 13.7691 37.1367 11.666 30.9617H2.85547V37.6567C7.21647 46.15 16.182 51.9999 26.5643 51.9999Z" fill="#FEED01"/>
<path d="M11.6662 30.9618C11.1128 29.4018 10.825 27.7335 10.825 26.0001C10.825 24.2668 11.135 22.5985 11.6662 21.0385V14.3435H2.85568C1.04044 17.8535 0 21.7968 0 26.0001C0 30.2035 1.04044 34.1468 2.85568 37.6568L11.6662 30.9618Z" fill="#FEED01"/>
<path d="M26.5643 10.2916C30.4825 10.2916 33.9802 11.6133 36.7473 14.1916L44.3182 6.78165C39.7358 2.57833 33.7367 0 26.5643 0C16.182 0 7.21647 5.84999 2.85547 14.3433L11.666 21.0383C13.7691 14.8633 19.6354 10.2916 26.5643 10.2916Z" fill="#FEED01"/>
</svg>
