<svg width="26" height="26" viewBox="0 0 26 26" fill="none" xmlns="http://www.w3.org/2000/svg">
<path d="M4.51074 2.99854C3.13576 2.99854 2.01074 4.12355 2.01074 5.49854V21.4985C2.01074 22.8735 3.13576 23.9985 4.51074 23.9985H20.5107C21.8857 23.9985 23.0107 22.8735 23.0107 21.4985V5.49854C23.0107 4.12355 21.8857 2.99854 20.5107 2.99854H4.51074ZM4.51074 3.99854H20.5107C21.3458 3.99854 22.0107 4.66352 22.0107 5.49854V21.4985C22.0107 22.3335 21.3458 22.9985 20.5107 22.9985H4.51074C3.67573 22.9985 3.01074 22.3335 3.01074 21.4985V5.49854C3.01074 4.66352 3.67573 3.99854 4.51074 3.99854ZM12.5059 5.49854C8.09533 5.49854 4.50586 9.088 4.50586 13.4985C4.50586 17.9091 8.09533 21.4985 12.5059 21.4985C16.9164 21.4985 20.5059 17.9091 20.5059 13.4985C20.5059 9.088 16.9164 5.49854 12.5059 5.49854ZM12.5059 6.49854C16.3753 6.49854 19.5059 9.62907 19.5059 13.4985C19.5059 17.368 16.3753 20.4985 12.5059 20.4985C8.63639 20.4985 5.50586 17.368 5.50586 13.4985C5.50586 9.62907 8.63639 6.49854 12.5059 6.49854ZM12.0059 8.49854C11.7309 8.49854 11.5059 8.72354 11.5059 8.99854V14.9985C11.5059 15.2735 11.7259 15.4985 12.0059 15.4985H13.0059C13.2809 15.4985 13.5059 15.2735 13.5059 14.9985V8.99854C13.5059 8.72354 13.2809 8.49854 13.0059 8.49854H12.0059ZM12.0059 16.4985C11.7309 16.4985 11.5059 16.7235 11.5059 16.9985V17.9985C11.5059 18.2735 11.7309 18.4985 12.0059 18.4985H13.0059C13.2809 18.4985 13.5059 18.2735 13.5059 17.9985V16.9985C13.5059 16.7235 13.2809 16.4985 13.0059 16.4985H12.0059Z" fill="#FEED01"/>
</svg>
