<svg width="53" height="52" viewBox="0 0 53 52" fill="none" xmlns="http://www.w3.org/2000/svg">
<path d="M26.1396 4.6865C33.0816 4.6865 33.905 4.7125 36.648 4.83817C43.694 5.15883 46.9851 8.502 47.3058 15.496C47.4315 18.2368 47.4553 19.0602 47.4553 26.0022C47.4553 32.9463 47.4293 33.7675 47.3058 36.5083C46.983 43.4958 43.7005 46.8455 36.648 47.1662C33.905 47.2918 33.086 47.3178 26.1396 47.3178C19.1976 47.3178 18.3743 47.2918 15.6335 47.1662C8.57015 46.8433 5.29632 43.485 4.97565 36.5062C4.84998 33.7653 4.82398 32.9442 4.82398 26C4.82398 19.058 4.85215 18.2368 4.97565 15.4938C5.29848 8.502 8.58098 5.15667 15.6335 4.836C18.3765 4.7125 19.1976 4.6865 26.1396 4.6865ZM26.1396 0C19.0785 0 18.1945 0.0303333 15.4211 0.156C5.97882 0.589333 0.731148 5.82833 0.297815 15.2793C0.169982 18.0548 0.139648 18.9388 0.139648 26C0.139648 33.0612 0.169982 33.9473 0.295648 36.7207C0.728982 46.163 5.96798 51.4107 15.419 51.844C18.1945 51.9697 19.0785 52 26.1396 52C33.2008 52 34.087 51.9697 36.8603 51.844C46.294 51.4107 51.5546 46.1717 51.9815 36.7207C52.1093 33.9473 52.1396 33.0612 52.1396 26C52.1396 18.9388 52.1093 18.0548 51.9837 15.2815C51.559 5.84783 46.3135 0.5915 36.8625 0.158167C34.087 0.0303333 33.2008 0 26.1396 0V0ZM26.1396 12.649C18.7665 12.649 12.7886 18.6268 12.7886 26C12.7886 33.3732 18.7665 39.3532 26.1396 39.3532C33.5128 39.3532 39.4907 33.3753 39.4907 26C39.4907 18.6268 33.5128 12.649 26.1396 12.649ZM26.1396 34.6667C21.3535 34.6667 17.473 30.7883 17.473 26C17.473 21.2138 21.3535 17.3333 26.1396 17.3333C30.9258 17.3333 34.8063 21.2138 34.8063 26C34.8063 30.7883 30.9258 34.6667 26.1396 34.6667ZM40.0193 9.0025C38.2947 9.0025 36.8972 10.4 36.8972 12.1225C36.8972 13.845 38.2947 15.2425 40.0193 15.2425C41.7418 15.2425 43.1371 13.845 43.1371 12.1225C43.1371 10.4 41.7418 9.0025 40.0193 9.0025Z" fill="#FEED01"/>
</svg>
