<svg width="53" height="52" viewBox="0 0 53 52" fill="none" xmlns="http://www.w3.org/2000/svg">
<path fill-rule="evenodd" clip-rule="evenodd" d="M41.3063 52H10.973C4.99082 52 0.139648 47.1488 0.139648 41.1667V10.8333C0.139648 4.85117 4.99082 0 10.973 0H41.3063C47.2906 0 52.1396 4.85117 52.1396 10.8333V41.1667C52.1396 47.1488 47.2906 52 41.3063 52ZM26.1396 9.75C16.5673 9.75 8.80632 16.9347 8.80632 25.7985C8.80632 30.8512 11.3261 35.3557 15.2651 38.298V44.4167L21.1671 41.1775C22.7423 41.613 24.4107 41.8492 26.1396 41.8492C35.712 41.8492 43.473 34.6623 43.473 25.7985C43.473 16.9347 35.712 9.75 26.1396 9.75ZM27.8622 31.3625L23.4487 26.6543L14.8361 31.3625L24.3088 21.3048L28.8306 26.013L37.337 21.3048L27.8622 31.3625Z" fill="#FEED01"/>
</svg>
