<svg width="89" height="88" viewBox="0 0 89 88" fill="none" xmlns="http://www.w3.org/2000/svg">
<path d="M65.4073 0.997314C52.8404 0.997314 42.6177 11.1815 42.6177 23.7012C42.6177 26.5687 43.2482 29.281 44.22 31.8012L3.56664 72.3016C-0.0313293 75.886 -0.0313293 81.7246 3.56664 85.309C7.16462 88.8934 13.0252 88.8934 16.6232 85.309L57.2766 44.8086C59.8063 45.7768 62.5289 46.405 65.4073 46.405C77.9742 46.405 88.1969 36.2208 88.1969 23.7012C88.1969 21.2105 87.8038 18.8382 87.0693 16.6062L86.0604 13.65L83.9239 15.8376L70.6299 29.0224L63.0927 26.007L60.066 18.4982L73.3006 5.25429L75.4965 3.1258L72.5291 2.12068C70.2887 1.38901 67.9073 0.997314 65.4073 0.997314ZM65.4073 4.78129C66.3198 4.78129 67.1432 5.06952 68.0186 5.19516L56.4457 16.6653L55.5555 17.5522L59.8286 28.1946L60.1253 28.9632L60.8968 29.2589L71.5795 33.5158L72.4697 32.629L83.9832 21.0997C84.1093 21.9718 84.3987 22.7921 84.3987 23.7012C84.3987 34.1736 75.9193 42.621 65.4073 42.621C62.6105 42.621 59.9695 41.9928 57.5734 40.9064L56.3864 40.3743L13.9526 82.6484C11.8086 84.7843 8.38125 84.7843 6.23731 82.6484C4.09336 80.5125 4.09336 77.0981 6.23731 74.9622L48.6712 32.6881L48.137 31.5056C47.0465 29.1185 46.4159 26.4874 46.4159 23.7012C46.4159 13.2287 54.8953 4.78129 65.4073 4.78129Z" fill="#FEED01"/>
</svg>
